<svg width="70" height="70" viewBox="0 0 70 70" fill="none" xmlns="http://www.w3.org/2000/svg">
<rect width="70" height="70" rx="35" fill="#0984E3"/>
<path d="M48.8946 40.284C48.0039 42.3903 46.6109 44.2463 44.8372 45.6898C43.0635 47.1333 40.9632 48.1204 38.72 48.5647C36.4767 49.009 34.1588 48.897 31.9688 48.2385C29.7788 47.58 27.7834 46.3951 26.1572 44.7873C24.5309 43.1795 23.3233 41.1979 22.6399 39.0155C21.9564 36.8332 21.818 34.5167 22.2366 32.2685C22.6553 30.0203 23.6183 27.9089 25.0414 26.1188C26.4646 24.3288 28.3046 22.9146 30.4006 22" stroke="#FFEAA7" stroke-width="3" stroke-linecap="round" stroke-linejoin="round"/>
<path d="M49 35C49 33.1615 48.6379 31.341 47.9343 29.6424C47.2307 27.9439 46.1995 26.4005 44.8995 25.1005C43.5995 23.8005 42.0561 22.7693 40.3576 22.0657C38.659 21.3621 36.8385 21 35 21V35H49Z" stroke="#FFEAA7" stroke-width="3" stroke-linecap="round" stroke-linejoin="round"/>
</svg>
